<svg xmlns="http://www.w3.org/2000/svg" width="16" height="16"><g fill="#80b3ff"><path d="m 14,12 h 1 v -2 h -4 v 2 h 1 v 4 h 2 z M 5.7,10 H 7.4 L 8,11.5 8.6,10 h 1.7 l -1.2,3 1.2,3 H 8.6 L 8,14.5 7.4,16 H 5.7 L 6.9,13 Z M 4,12 H 5 V 10 H 1 v 2 h 1 v 4 h 2 z" /><path d="m 3.4895662,3.4896832 a 3,3 0 0 0 0,4.2426406 3,3 0 0 0 0.3866955,0.3204113 L 8.0526113,3.8763856 a 3,3 0 0 0 -0.3204078,-0.3866991 3,3 0 0 0 -4.2426408,2e-7 z" /><path d="M 8.7929687,3.84375 3.84375,8.7929687 4.0507813,9 l 2.4140625,10e-8 3.7421872,-3.7421875 z" /><path d="M 9.3945312 6.7773438 L 7.171875 9 L 11.371094 9 L 9.3945312 6.7773438 z " /></g></svg>
