<svg xmlns="http://www.w3.org/2000/svg" width="16" height="16"><g fill="#8eef97"><rect x="1" y="10" width="14" height="1" /><rect x="3" y="12" width="10" height="1" /><path d="m 3.4895662,3.4896832 a 3,3 0 0 0 0,4.2426406 3,3 0 0 0 0.3866955,0.3204113 L 8.0526113,3.8763856 a 3,3 0 0 0 -0.3204078,-0.3866991 3,3 0 0 0 -4.2426408,2e-7 z" /><path d="M 8.7929687,3.84375 3.84375,8.7929687 4.0507813,9 l 2.4140625,10e-8 3.7421872,-3.7421875 z" /><path d="M 9.3945312 6.7773438 L 7.171875 9 L 11.371094 9 L 9.3945312 6.7773438 z " /></g></svg>
